# xmcd CD database file generated by OrangeCD 5.2
#
# Track frame offsets:
#	150
#	15477
#	38501
#	57177
#	69157
#	84594
#	97948
#	116429
#	137203
#	153582
#	173536
#	192272
#	201334
#	214991
#	234138
#	254485
#	271501
#	286868
#	308431
#
# Disc length: 4288 seconds
#
# Revision: 2
# Processed by: cddbd v1.5.1PL0 Copyright (c) Steve Scherf et al.
# Submitted via: OrangeCD 5.2
#
DISCID=f110be13
DTITLE=Bobby Bare - The Columbia Years: Bare's Picks
DYEAR=2000
DGENRE=Country
TTITLE0=Bobby Bare and Rosanne Cash - No Memories Hangin' 'Round
TTITLE1=Numbers
TTITLE2=Tequila Sheila
TTITLE3=Take Me As I Am (Or Let Me Go)
TTITLE4=New Cut Road
TTITLE5=(I'm Not A) Candle In The Wind
TTITLE6=The Jogger
TTITLE7=This Guitar Is For Sale
TTITLE8=Goin' Up's Easy, Comin' Down's Hard
TTITLE9=Rock Star's Lament
TTITLE10=Tecumseh Valley
TTITLE11=Quaaludes Again
TTITLE12=Song Of The South
TTITLE13=Summer Wages
TTITLE14=Let Him Roll
TTITLE15=The Ol' Swimmin' Hole
TTITLE16=Goodnight Irene
TTITLE17=Me And Jimmie Rodgers
TTITLE18=Greasy Grit Gravy
EXTD=
EXTT0=
EXTT1=
EXTT2=
EXTT3=
EXTT4=
EXTT5=
EXTT6=
EXTT7=
EXTT8=
EXTT9=
EXTT10=
EXTT11=
EXTT12=
EXTT13=
EXTT14=
EXTT15=
EXTT16=
EXTT17=
EXTT18=
PLAYORDER=
